<?xml version="1.0" encoding="utf-8"?>
<!-- Generator: Adobe Illustrator 16.0.0, SVG Export Plug-In . SVG Version: 6.00 Build 0)  -->
<!DOCTYPE svg PUBLIC "-//W3C//DTD SVG 1.1//EN" "http://www.w3.org/Graphics/SVG/1.1/DTD/svg11.dtd">
<svg version="1.1" id="圖層_1" xmlns="http://www.w3.org/2000/svg" xmlns:xlink="http://www.w3.org/1999/xlink" x="0px" y="0px"
	 width="270.25px" height="30px" viewBox="0 0 270.25 30" enable-background="new 0 0 270.25 30" xml:space="preserve">
<path id="Rectangle" fill="#FF5E5B" d="M9.695,0h250.859c5.354,0,9.695,3.582,9.695,8v14c0,4.418-4.342,8-9.695,8H9.695
	C4.34,30,0,26.418,0,22V8C0,3.582,4.34,0,9.695,0z"/>
<path id="SupportmeonKo-f" fill="#FFFFFF" d="M66.2,19.141c-0.672,0-1.27-0.084-1.792-0.252c-0.523-0.169-1.013-0.453-1.47-0.854
	c-0.252-0.224-0.378-0.472-0.378-0.742c0-0.215,0.079-0.403,0.238-0.567c0.159-0.163,0.35-0.244,0.574-0.244
	c0.177,0,0.336,0.056,0.476,0.168c0.373,0.308,0.737,0.531,1.092,0.672c0.354,0.14,0.775,0.21,1.26,0.21
	c0.522,0,0.973-0.117,1.351-0.351c0.378-0.232,0.567-0.522,0.567-0.867c0-0.42-0.187-0.75-0.56-0.987
	c-0.374-0.238-0.966-0.418-1.778-0.539c-2.044-0.299-3.066-1.251-3.066-2.856c0-0.588,0.154-1.099,0.462-1.533
	c0.308-0.434,0.728-0.765,1.26-0.994c0.532-0.229,1.125-0.343,1.778-0.343c0.588,0,1.141,0.088,1.659,0.266
	c0.518,0.177,0.95,0.411,1.295,0.7c0.271,0.215,0.406,0.462,0.406,0.742c0,0.214-0.08,0.404-0.238,0.567
	c-0.159,0.164-0.345,0.245-0.56,0.245c-0.14,0-0.266-0.042-0.378-0.126c-0.243-0.196-0.581-0.376-1.015-0.539
	c-0.434-0.164-0.823-0.245-1.169-0.245c-0.588,0-1.043,0.11-1.365,0.329c-0.322,0.219-0.483,0.506-0.483,0.861
	c0,0.401,0.166,0.705,0.497,0.91c0.332,0.206,0.852,0.374,1.561,0.504c0.803,0.14,1.444,0.32,1.925,0.539
	c0.48,0.219,0.842,0.518,1.085,0.896s0.364,0.88,0.364,1.505c0,0.588-0.166,1.104-0.497,1.547c-0.331,0.443-0.772,0.784-1.323,1.022
	S66.834,19.141,66.2,19.141z M76.826,11.51c0.243,0,0.443,0.082,0.602,0.245c0.158,0.164,0.238,0.366,0.238,0.609v3.556
	c0,1.008-0.278,1.797-0.833,2.366s-1.346,0.854-2.373,0.854s-1.815-0.285-2.366-0.854c-0.551-0.569-0.826-1.358-0.826-2.366v-3.556
	c0-0.243,0.079-0.446,0.238-0.609c0.159-0.163,0.359-0.245,0.602-0.245s0.443,0.082,0.602,0.245
	c0.159,0.164,0.238,0.366,0.238,0.609v3.556c0,0.569,0.126,0.992,0.378,1.268s0.63,0.412,1.134,0.412
	c0.513,0,0.896-0.137,1.148-0.412s0.378-0.698,0.378-1.268v-3.556c0-0.243,0.08-0.446,0.238-0.609
	C76.383,11.592,76.583,11.51,76.826,11.51z M83.364,11.37c0.644,0,1.228,0.166,1.75,0.497c0.523,0.331,0.936,0.791,1.239,1.379
	s0.455,1.255,0.455,2.002c0,0.746-0.149,1.416-0.448,2.009c-0.298,0.593-0.707,1.055-1.225,1.386
	c-0.518,0.332-1.089,0.498-1.715,0.498c-0.448,0-0.87-0.092-1.267-0.273c-0.396-0.182-0.726-0.404-0.987-0.665v2.743
	c0,0.243-0.08,0.446-0.238,0.609c-0.159,0.164-0.359,0.245-0.602,0.245s-0.443-0.079-0.602-0.237
	c-0.159-0.159-0.238-0.364-0.238-0.617v-8.581c0-0.243,0.08-0.446,0.238-0.609c0.159-0.163,0.359-0.245,0.602-0.245
	s0.443,0.082,0.602,0.245c0.158,0.164,0.238,0.366,0.238,0.609v0.056c0.224-0.28,0.537-0.525,0.938-0.735S82.925,11.37,83.364,11.37
	z M83.154,17.6c0.598,0,1.087-0.224,1.47-0.672c0.383-0.447,0.574-1.008,0.574-1.68s-0.189-1.229-0.567-1.673
	s-0.87-0.665-1.477-0.665c-0.606,0-1.101,0.222-1.484,0.665s-0.574,1.001-0.574,1.673s0.191,1.232,0.574,1.68
	C82.053,17.376,82.547,17.6,83.154,17.6z M92.086,11.37c0.644,0,1.228,0.166,1.75,0.497c0.523,0.331,0.936,0.791,1.239,1.379
	c0.303,0.588,0.455,1.255,0.455,2.002c0,0.746-0.149,1.416-0.448,2.009s-0.707,1.055-1.225,1.386
	c-0.518,0.332-1.09,0.498-1.715,0.498c-0.448,0-0.871-0.092-1.267-0.273s-0.726-0.404-0.987-0.665v2.743
	c0,0.243-0.08,0.446-0.238,0.609c-0.159,0.164-0.359,0.245-0.602,0.245s-0.443-0.079-0.602-0.237
	c-0.159-0.159-0.238-0.364-0.238-0.617v-8.581c0-0.243,0.079-0.446,0.238-0.609c0.159-0.163,0.359-0.245,0.602-0.245
	s0.443,0.082,0.602,0.245c0.159,0.164,0.238,0.366,0.238,0.609v0.056c0.224-0.28,0.537-0.525,0.938-0.735S91.647,11.37,92.086,11.37
	z M91.876,17.6c0.597,0,1.087-0.224,1.47-0.672c0.382-0.447,0.574-1.008,0.574-1.68s-0.189-1.229-0.567-1.673
	s-0.87-0.665-1.477-0.665c-0.606,0-1.101,0.222-1.484,0.665s-0.574,1.001-0.574,1.673s0.191,1.232,0.574,1.68
	C90.775,17.376,91.27,17.6,91.876,17.6z M104.126,15.262c0,0.747-0.168,1.416-0.504,2.009c-0.336,0.592-0.796,1.052-1.379,1.379
	c-0.583,0.326-1.225,0.49-1.925,0.49c-0.709,0-1.353-0.164-1.932-0.49c-0.579-0.327-1.036-0.787-1.372-1.379
	c-0.336-0.594-0.504-1.263-0.504-2.009c0-0.747,0.168-1.417,0.504-2.009s0.793-1.055,1.372-1.386
	c0.579-0.332,1.223-0.497,1.932-0.497c0.7,0,1.342,0.166,1.925,0.497c0.583,0.331,1.043,0.793,1.379,1.386
	S104.126,14.515,104.126,15.262z M102.446,15.262c0-0.458-0.096-0.866-0.287-1.225c-0.191-0.359-0.448-0.637-0.77-0.833
	c-0.322-0.196-0.679-0.294-1.071-0.294s-0.749,0.098-1.071,0.294c-0.322,0.196-0.579,0.474-0.77,0.833s-0.287,0.768-0.287,1.225
	c0,0.457,0.096,0.863,0.287,1.218c0.191,0.354,0.448,0.629,0.77,0.826c0.322,0.195,0.679,0.293,1.071,0.293s0.749-0.098,1.071-0.293
	c0.322-0.197,0.579-0.473,0.77-0.826C102.35,16.125,102.446,15.719,102.446,15.262z M109.418,11.37c0.28,0,0.516,0.079,0.707,0.238
	s0.287,0.345,0.287,0.56c0,0.29-0.075,0.506-0.224,0.651c-0.149,0.145-0.327,0.217-0.532,0.217c-0.14,0-0.298-0.033-0.476-0.098
	c-0.028-0.009-0.091-0.028-0.189-0.056c-0.098-0.028-0.203-0.042-0.315-0.042c-0.243,0-0.476,0.075-0.7,0.224
	s-0.408,0.375-0.553,0.679c-0.145,0.303-0.217,0.665-0.217,1.085v3.318c0,0.242-0.08,0.445-0.238,0.608
	C106.81,18.918,106.609,19,106.366,19s-0.443-0.082-0.602-0.245s-0.238-0.366-0.238-0.608v-5.782c0-0.243,0.08-0.446,0.238-0.609
	c0.159-0.163,0.359-0.245,0.602-0.245s0.443,0.082,0.602,0.245c0.159,0.164,0.238,0.366,0.238,0.609v0.182
	c0.215-0.383,0.522-0.674,0.924-0.875S108.96,11.37,109.418,11.37z M115.214,17.418c0.131,0,0.25,0.063,0.356,0.189
	c0.107,0.125,0.162,0.291,0.162,0.496c0,0.252-0.139,0.465-0.414,0.638S114.733,19,114.389,19c-0.579,0-1.066-0.123-1.464-0.371
	c-0.396-0.247-0.595-0.772-0.595-1.574V13.19h-0.644c-0.224,0-0.411-0.075-0.56-0.224s-0.224-0.336-0.224-0.56
	c0-0.215,0.075-0.395,0.224-0.539c0.149-0.145,0.336-0.217,0.56-0.217h0.644v-0.896c0-0.243,0.082-0.445,0.245-0.609
	s0.366-0.245,0.608-0.245c0.234,0,0.43,0.082,0.588,0.245c0.159,0.164,0.238,0.366,0.238,0.609v0.896h0.994
	c0.225,0,0.41,0.075,0.561,0.224c0.148,0.149,0.224,0.336,0.224,0.56c0,0.214-0.075,0.394-0.224,0.539
	c-0.15,0.145-0.336,0.217-0.561,0.217h-0.994v3.794c0,0.195,0.052,0.338,0.154,0.427s0.242,0.133,0.42,0.133
	c0.074,0,0.178-0.019,0.309-0.056C115.004,17.441,115.111,17.418,115.214,17.418z M129.887,11.37c0.924,0,1.563,0.282,1.918,0.847
	c0.354,0.565,0.531,1.347,0.531,2.345v3.584c0,0.242-0.079,0.445-0.238,0.608c-0.158,0.163-0.359,0.245-0.602,0.245
	s-0.443-0.082-0.602-0.245c-0.159-0.163-0.238-0.366-0.238-0.608v-3.584c0-0.513-0.101-0.917-0.301-1.211
	c-0.201-0.294-0.553-0.441-1.058-0.441c-0.522,0-0.931,0.156-1.226,0.469c-0.293,0.313-0.44,0.707-0.44,1.183v3.584
	c0,0.242-0.079,0.445-0.237,0.608c-0.159,0.163-0.359,0.245-0.603,0.245s-0.443-0.082-0.603-0.245
	c-0.158-0.163-0.237-0.366-0.237-0.608v-3.584c0-0.513-0.101-0.917-0.302-1.211c-0.2-0.294-0.553-0.441-1.057-0.441
	c-0.522,0-0.931,0.156-1.225,0.469s-0.441,0.707-0.441,1.183v3.584c0,0.242-0.079,0.445-0.238,0.608
	C122.531,18.918,122.33,19,122.088,19s-0.443-0.082-0.602-0.245c-0.159-0.163-0.238-0.366-0.238-0.608v-5.782
	c0-0.243,0.079-0.446,0.238-0.609c0.158-0.163,0.359-0.245,0.602-0.245s0.443,0.082,0.602,0.245
	c0.159,0.164,0.238,0.366,0.238,0.609v0.224c0.252-0.336,0.572-0.623,0.959-0.861c0.388-0.238,0.819-0.357,1.295-0.357
	c1.176,0,1.928,0.513,2.254,1.54c0.215-0.392,0.539-0.747,0.974-1.064C128.843,11.529,129.336,11.37,129.887,11.37z M140.876,15.08
	c-0.009,0.224-0.099,0.406-0.267,0.546c-0.168,0.14-0.363,0.21-0.588,0.21h-4.619c0.111,0.551,0.368,0.982,0.77,1.295
	s0.854,0.469,1.357,0.469c0.383,0,0.682-0.035,0.896-0.104c0.215-0.07,0.385-0.145,0.512-0.224c0.125-0.08,0.212-0.133,0.258-0.162
	c0.168-0.084,0.327-0.125,0.477-0.125c0.196,0,0.364,0.07,0.504,0.209c0.141,0.141,0.211,0.304,0.211,0.49
	c0,0.252-0.131,0.48-0.393,0.687c-0.262,0.214-0.611,0.396-1.051,0.546c-0.438,0.149-0.881,0.225-1.33,0.225
	c-0.783,0-1.467-0.164-2.051-0.49c-0.583-0.327-1.033-0.777-1.351-1.352s-0.476-1.221-0.476-1.939c0-0.803,0.168-1.507,0.504-2.114
	c0.336-0.607,0.779-1.071,1.33-1.393s1.139-0.483,1.764-0.483c0.616,0,1.197,0.168,1.743,0.504s0.981,0.789,1.31,1.358
	C140.713,13.801,140.876,14.417,140.876,15.08z M137.334,12.91c-1.082,0-1.723,0.508-1.918,1.526h3.668v-0.098
	c-0.037-0.392-0.229-0.728-0.574-1.008C138.164,13.05,137.772,12.91,137.334,12.91z M153.393,15.262
	c0,0.747-0.168,1.416-0.504,2.009c-0.336,0.592-0.797,1.052-1.38,1.379c-0.583,0.326-1.225,0.49-1.925,0.49
	c-0.709,0-1.354-0.164-1.932-0.49c-0.579-0.327-1.036-0.787-1.373-1.379c-0.336-0.594-0.504-1.263-0.504-2.009
	c0-0.747,0.168-1.417,0.504-2.009c0.337-0.593,0.794-1.055,1.373-1.386c0.578-0.332,1.223-0.497,1.932-0.497
	c0.7,0,1.342,0.166,1.925,0.497c0.583,0.331,1.044,0.793,1.38,1.386S153.393,14.515,153.393,15.262z M151.712,15.262
	c0-0.458-0.096-0.866-0.287-1.225c-0.19-0.359-0.448-0.637-0.771-0.833c-0.321-0.196-0.678-0.294-1.07-0.294
	s-0.749,0.098-1.07,0.294c-0.322,0.196-0.579,0.474-0.771,0.833s-0.287,0.768-0.287,1.225c0,0.457,0.096,0.863,0.287,1.218
	c0.191,0.354,0.448,0.629,0.771,0.826c0.321,0.195,0.678,0.293,1.07,0.293s0.749-0.098,1.07-0.293
	c0.322-0.197,0.58-0.473,0.771-0.826C151.616,16.125,151.712,15.719,151.712,15.262z M158.796,11.37c0.952,0,1.61,0.282,1.974,0.847
	c0.364,0.565,0.547,1.347,0.547,2.345v3.584c0,0.242-0.08,0.445-0.238,0.608S160.719,19,160.477,19
	c-0.243,0-0.443-0.082-0.603-0.245s-0.237-0.366-0.237-0.608v-3.584c0-0.513-0.107-0.917-0.322-1.211s-0.584-0.441-1.106-0.441
	c-0.542,0-0.966,0.156-1.274,0.469c-0.308,0.313-0.461,0.707-0.461,1.183v3.584c0,0.242-0.08,0.445-0.238,0.608
	c-0.159,0.163-0.359,0.245-0.603,0.245s-0.443-0.082-0.603-0.245c-0.158-0.163-0.237-0.366-0.237-0.608v-5.782
	c0-0.243,0.079-0.446,0.237-0.609c0.159-0.163,0.359-0.245,0.603-0.245s0.443,0.082,0.603,0.245
	c0.158,0.164,0.238,0.366,0.238,0.609v0.238c0.252-0.336,0.58-0.625,0.986-0.868S158.311,11.37,158.796,11.37z M174.7,17.544
	c0.056,0.075,0.103,0.165,0.14,0.272s0.057,0.208,0.057,0.302c0,0.252-0.096,0.462-0.287,0.63S174.195,19,173.943,19
	c-0.121,0-0.237-0.027-0.35-0.084c-0.111-0.057-0.205-0.135-0.279-0.238l-3.039-4.004l-1.33,1.274v2.198
	c0,0.252-0.081,0.457-0.244,0.615c-0.164,0.159-0.376,0.238-0.637,0.238c-0.252,0-0.46-0.082-0.623-0.245
	c-0.164-0.163-0.246-0.366-0.246-0.608v-8.092c0-0.243,0.084-0.446,0.252-0.609c0.169-0.163,0.383-0.245,0.645-0.245
	c0.252,0,0.457,0.079,0.616,0.238s0.237,0.364,0.237,0.616v3.808l4.48-4.41c0.215-0.215,0.443-0.322,0.686-0.322
	c0.215,0,0.397,0.089,0.547,0.266c0.148,0.177,0.224,0.364,0.224,0.56c0,0.196-0.084,0.378-0.252,0.546l-3.052,2.912L174.7,17.544z
	 M183.422,15.262c0,0.747-0.168,1.416-0.504,2.009c-0.336,0.592-0.795,1.052-1.379,1.379c-0.584,0.326-1.225,0.49-1.926,0.49
	c-0.709,0-1.353-0.164-1.932-0.49c-0.578-0.327-1.035-0.787-1.371-1.379c-0.336-0.594-0.504-1.263-0.504-2.009
	c0-0.747,0.168-1.417,0.504-2.009s0.793-1.055,1.371-1.386c0.579-0.332,1.223-0.497,1.932-0.497c0.701,0,1.342,0.166,1.926,0.497
	c0.584,0.331,1.043,0.793,1.379,1.386S183.422,14.515,183.422,15.262z M181.742,15.262c0-0.458-0.096-0.866-0.287-1.225
	s-0.448-0.637-0.77-0.833c-0.322-0.196-0.68-0.294-1.072-0.294c-0.391,0-0.748,0.098-1.07,0.294
	c-0.322,0.196-0.578,0.474-0.77,0.833s-0.287,0.768-0.287,1.225c0,0.457,0.096,0.863,0.287,1.218
	c0.191,0.354,0.447,0.629,0.77,0.826c0.322,0.195,0.68,0.293,1.07,0.293c0.393,0,0.75-0.098,1.072-0.293
	c0.321-0.197,0.578-0.473,0.77-0.826C181.646,16.125,181.742,15.719,181.742,15.262z M185.466,15.542
	c-0.243,0-0.445-0.079-0.608-0.238c-0.164-0.159-0.246-0.359-0.246-0.602c0-0.233,0.082-0.43,0.246-0.588
	c0.163-0.159,0.365-0.238,0.608-0.238h2.437c0.242,0,0.445,0.082,0.609,0.245c0.162,0.163,0.244,0.366,0.244,0.609
	c0,0.233-0.082,0.427-0.244,0.581c-0.164,0.154-0.367,0.231-0.609,0.231H185.466z M193.964,10.124c-0.317,0-0.541,0.091-0.672,0.273
	s-0.196,0.38-0.196,0.595v0.658h1.274c0.224,0,0.411,0.072,0.56,0.217c0.149,0.145,0.225,0.329,0.225,0.553
	s-0.075,0.408-0.225,0.553c-0.148,0.145-0.336,0.217-0.56,0.217h-1.274v4.957c0,0.242-0.079,0.445-0.238,0.608
	c-0.158,0.163-0.359,0.245-0.602,0.245s-0.443-0.082-0.602-0.245c-0.159-0.163-0.238-0.366-0.238-0.608V13.19h-0.756
	c-0.225,0-0.41-0.072-0.561-0.217c-0.148-0.145-0.224-0.329-0.224-0.553s0.075-0.408,0.224-0.553
	c0.15-0.145,0.336-0.217,0.561-0.217h0.756v-0.644c0-0.7,0.24-1.269,0.721-1.708c0.48-0.438,1.174-0.658,2.079-0.658
	c0.346,0,0.646,0.07,0.903,0.21c0.256,0.14,0.385,0.354,0.385,0.644c0,0.224-0.065,0.406-0.195,0.546
	c-0.131,0.14-0.29,0.21-0.477,0.21c-0.047,0-0.096-0.005-0.146-0.014c-0.052-0.009-0.105-0.019-0.162-0.028
	C194.3,10.152,194.113,10.124,193.964,10.124z M197.786,18.146c0,0.242-0.079,0.445-0.238,0.608S197.188,19,196.945,19
	c-0.242,0-0.443-0.082-0.602-0.245s-0.238-0.366-0.238-0.608v-5.782c0-0.243,0.08-0.446,0.238-0.609
	c0.158-0.163,0.359-0.245,0.602-0.245c0.243,0,0.443,0.082,0.603,0.245c0.159,0.164,0.238,0.366,0.238,0.609V18.146z M196.932,10.6
	c-0.316,0-0.541-0.051-0.672-0.154c-0.131-0.103-0.195-0.285-0.195-0.546V9.634c0-0.261,0.069-0.443,0.209-0.546
	c0.141-0.103,0.365-0.154,0.672-0.154c0.327,0,0.557,0.051,0.687,0.154c0.131,0.103,0.196,0.285,0.196,0.546V9.9
	c0,0.271-0.068,0.455-0.203,0.553C197.49,10.551,197.259,10.6,196.932,10.6z"/>
<rect x="165.311" y="6.771" fill="#FF5E5B" width="35.439" height="15.84"/>
<text transform="matrix(1 0 0 1 167.2363 19.2617)" fill="#FFFFFF" font-family="'AdobeFanHeitiStd-Bold-B5pc-H'" font-size="12">buy me a coffee</text>
<g>
	<path fill="#FFFFFF" d="M44.444,17.218c0.41-1.435-0.268-2.3-0.972-2.605c-0.3-0.13-0.628-0.18-0.961-0.151
		c0.062-0.802,0.036-1.324,0.035-1.334c0-2.369-3.712-4.226-8.451-4.226c-4.739,0-8.45,1.857-8.45,4.206
		c-0.008,0.151-0.174,3.735,1.606,6.622l-0.013,0.009c0.016,0.024,0.033,0.048,0.05,0.073c-1.887,0.669-2.92,1.592-2.92,2.619
		c0,1.763,3.463,3.636,9.88,3.636s9.88-1.873,9.88-3.636c0-1.411-2.146-2.34-3.188-2.707c0.079-0.129,0.156-0.261,0.231-0.4
		C43.487,19.351,44.217,18.014,44.444,17.218z M43.362,22.43c0,1.356-3.742,2.866-9.112,2.866s-9.112-1.51-9.112-2.866
		c0-0.69,0.979-1.422,2.625-1.968c1.302,1.547,3.295,2.274,6.19,2.274h0.25c2.929,0,4.998-0.776,6.299-2.364
		c0.025,0.015,0.051,0.028,0.08,0.039C42.245,20.979,43.362,21.79,43.362,22.43z M40.604,18.756
		c-0.106,0.207-0.212,0.396-0.323,0.576c-0.019,0.031-0.031,0.063-0.041,0.097c-1.122,1.729-3.042,2.54-6.037,2.54h-0.25
		c-2.976,0-4.886-0.814-6.005-2.554c-0.009-0.028-0.021-0.057-0.037-0.083c-1.657-2.679-1.5-6.15-1.497-6.205
		c0-1.873,3.518-3.457,7.682-3.458c4.164,0.001,7.682,1.585,7.683,3.478c0,0.007,0.035,0.731-0.081,1.759
		c-0.015,0.132,0.039,0.263,0.144,0.345c0.104,0.082,0.245,0.104,0.369,0.059c0.328-0.12,0.667-0.117,0.956,0.008
		c0.213,0.092,0.882,0.487,0.539,1.688c-0.293,1.027-1.119,1.549-2.453,1.549c-0.088,0-0.18-0.002-0.288-0.008
		C40.818,18.54,40.673,18.621,40.604,18.756z"/>
	<path fill="#FFFFFF" d="M41.77,17.75c-0.127,0-0.246-0.063-0.318-0.168c-0.072-0.105-0.086-0.24-0.039-0.359
		c0.095-0.235,0.169-0.497,0.221-0.777c0.015-0.077,0.053-0.148,0.11-0.204c0.224-0.218,0.567-0.29,0.831-0.177
		c0.249,0.108,0.486,0.416,0.339,0.928c-0.08,0.28-0.334,0.752-1.142,0.758C41.771,17.75,41.771,17.75,41.77,17.75z"/>
	<path fill="#FFFFFF" d="M33.982,10.566c-3.797,0-6.875,1.148-6.875,2.565s3.079,2.566,6.875,2.566c3.797,0,6.875-1.149,6.875-2.566
		S37.779,10.566,33.982,10.566z M34.09,14.912l-2.975-1.89c-0.269-0.171-0.417-0.381-0.417-0.591c0-0.209,0.148-0.419,0.417-0.591
		c0.199-0.126,0.458-0.19,0.77-0.19c0.512,0,1.123,0.176,1.633,0.471l0.557,0.322l0.557-0.322c0.511-0.294,1.122-0.471,1.634-0.471
		c0.312,0,0.571,0.064,0.77,0.191c0.269,0.17,0.417,0.381,0.417,0.59c0,0.21-0.148,0.42-0.417,0.591l-2.954,1.881
		c-0.001,0-0.003,0-0.007,0L34.09,14.912z"/>
	<path fill="#FFFFFF" d="M35.38,7.834c-0.087,0-0.175-0.03-0.247-0.091c-0.4-0.335-0.962-1.225-0.228-2.188
		c0.159-0.208,0.353-0.423,0.541-0.63c0.402-0.444,0.901-0.998,0.864-1.342c-0.004-0.042-0.018-0.167-0.244-0.33
		c-0.281-0.202-0.527-0.212-0.695-0.03c-0.118,0.13-0.138,0.299-0.094,0.351c0.139,0.161,0.121,0.403-0.04,0.542
		c-0.16,0.139-0.403,0.121-0.542-0.039c-0.317-0.368-0.27-0.957,0.109-1.371c0.332-0.363,0.979-0.601,1.71-0.077
		c0.336,0.241,0.524,0.535,0.561,0.873c0.073,0.687-0.502,1.323-1.059,1.939c-0.185,0.205-0.36,0.398-0.499,0.581
		c-0.47,0.618,0.05,1.083,0.111,1.134c0.163,0.136,0.184,0.379,0.047,0.542C35.598,7.787,35.489,7.834,35.38,7.834z"/>
	<path fill="#FFFFFF" d="M33.203,8.553c-0.098,0-0.197-0.038-0.272-0.113c-0.149-0.15-0.149-0.394,0-0.543
		c0.193-0.193,0.373-0.577,0.339-1c-0.038-0.47-0.323-0.9-0.847-1.277c-0.94-0.676-0.855-1.477-0.618-2.029
		c0.173-0.403,0.692-0.655,1.234-0.596c0.631,0.068,1.088,0.522,1.223,1.215c0.041,0.208-0.095,0.411-0.304,0.451
		c-0.208,0.042-0.41-0.096-0.451-0.304c-0.088-0.452-0.345-0.575-0.544-0.598c-0.243-0.028-0.429,0.083-0.452,0.134
		c-0.194,0.452-0.086,0.781,0.36,1.103c0.892,0.641,1.125,1.354,1.164,1.839c0.058,0.713-0.267,1.311-0.562,1.606
		C33.399,8.516,33.301,8.553,33.203,8.553z"/>
	<path fill="#FFFFFF" d="M31.196,7.834c-0.076,0-0.152-0.023-0.219-0.069c-0.174-0.121-0.217-0.36-0.097-0.534
		c0.282-0.406,0.123-0.669-0.534-1.308c-0.09-0.087-0.178-0.173-0.261-0.26c-0.602-0.626-0.325-1.344,0.007-1.672
		c0.151-0.149,0.394-0.148,0.543,0.002c0.148,0.15,0.148,0.391,0,0.54C30.53,4.645,30.39,4.87,30.641,5.132
		c0.076,0.079,0.159,0.159,0.242,0.24c0.529,0.514,1.328,1.291,0.629,2.297C31.437,7.776,31.317,7.834,31.196,7.834z"/>
</g>
</svg>
